<svg xmlns="http://www.w3.org/2000/svg" width="92.508" height="88.804" viewBox="0 0 92.508 88.804"><g transform="translate(0 0)"><path d="M90.7,10.249H1.807A1.807,1.807,0,0,0,0,12.056V30.64a1.807,1.807,0,0,0,1.807,1.807H90.7a1.807,1.807,0,0,0,1.807-1.807V12.056A1.807,1.807,0,0,0,90.7,10.249ZM88.894,28.833H3.614V13.863h85.28Z" transform="translate(0 -10.249)" fill="#000e3a"/></g><g transform="translate(72.409 4.636)"><path d="M413.168,45.751l-1.476-1.476a5.768,5.768,0,1,0-2.555,2.555l1.476,1.476a1.807,1.807,0,0,0,2.555-2.555Zm-5.1-2.549a2.158,2.158,0,1,1,.632-1.526A2.144,2.144,0,0,1,408.064,43.2Z" transform="translate(-400.765 -35.906)" fill="#000e3a"/></g><g transform="translate(61.167 12.564)"><path d="M342.118,81.24a1.822,1.822,0,0,0-.1-.338,1.843,1.843,0,0,0-.166-.313,1.812,1.812,0,0,0-.224-.275,1.728,1.728,0,0,0-.275-.224,1.784,1.784,0,0,0-.313-.166,1.825,1.825,0,0,0-.338-.1,1.788,1.788,0,0,0-.706,0,1.847,1.847,0,0,0-.925.493,1.926,1.926,0,0,0-.224.275,1.847,1.847,0,0,0-.166.313,1.816,1.816,0,0,0-.1.338,1.833,1.833,0,0,0,0,.706,1.815,1.815,0,0,0,.1.338,1.9,1.9,0,0,0,.166.313,1.936,1.936,0,0,0,.224.275,1.867,1.867,0,0,0,.587.39,1.912,1.912,0,0,0,.338.1,1.8,1.8,0,0,0,1.044-.1,1.851,1.851,0,0,0,.313-.166,1.72,1.72,0,0,0,.275-.224,1.823,1.823,0,0,0,.529-1.277A1.8,1.8,0,0,0,342.118,81.24Z" transform="translate(-338.541 -79.786)" fill="#000e3a"/></g><g transform="translate(16.766 12.564)"><path d="M132.152,79.786H94.6a1.807,1.807,0,0,0,0,3.614h37.551a1.807,1.807,0,0,0,0-3.614Z" transform="translate(-92.794 -79.786)" fill="#000e3a"/></g><g transform="translate(0.213 24.774)"><path d="M57.849,147.364H2.988a1.807,1.807,0,0,0-1.807,1.807V184.8a1.807,1.807,0,0,0,1.807,1.807H57.849a1.807,1.807,0,0,0,1.807-1.807v-35.63A1.807,1.807,0,0,0,57.849,147.364ZM22.975,182.993H7.639l10.328-11.958,7.48,8.662Zm4.517,0,3.369-4.492h8.761a1.807,1.807,0,0,0,0-3.614H33.572l1.268-1.69H46.184l7.347,9.8Zm10.057-13.409,2.962-3.949,2.962,3.949Zm18.493,10.735-14.085-18.78a1.807,1.807,0,0,0-2.891,0l-11.4,15.2-8.332-9.648a1.807,1.807,0,0,0-2.735,0L4.795,180.758V150.978H56.042Z" transform="translate(-1.181 -147.364)" fill="#000e3a"/></g><g transform="translate(18.482 30.462)"><path d="M108.683,178.846a6.388,6.388,0,1,0,6.388,6.388A6.395,6.395,0,0,0,108.683,178.846Zm0,9.162a2.774,2.774,0,1,1,2.774-2.774A2.777,2.777,0,0,1,108.683,188.008Z" transform="translate(-102.295 -178.846)" fill="#000e3a"/></g><g transform="translate(61.126 24.774)"><path d="M367.887,147.364H340.119a1.807,1.807,0,0,0-1.807,1.807V184.8a1.807,1.807,0,0,0,1.807,1.807h27.768a1.807,1.807,0,0,0,1.807-1.807v-35.63A1.807,1.807,0,0,0,367.887,147.364Zm-1.807,35.63H341.926V150.978H366.08Z" transform="translate(-338.312 -147.364)" fill="#000e3a"/></g><g transform="translate(67.139 31.363)"><path d="M389.143,183.835H373.4a1.807,1.807,0,0,0,0,3.614h15.741a1.807,1.807,0,0,0,0-3.614Z" transform="translate(-371.595 -183.835)" fill="#000e3a"/></g><g transform="translate(67.139 38.615)"><path d="M389.143,223.969H373.4a1.807,1.807,0,0,0,0,3.614h15.741a1.807,1.807,0,0,0,0-3.614Z" transform="translate(-371.595 -223.969)" fill="#000e3a"/></g><g transform="translate(67.139 45.866)"><path d="M389.143,264.1H373.4a1.807,1.807,0,0,0,0,3.614h15.741a1.807,1.807,0,0,0,0-3.614Z" transform="translate(-371.595 -264.103)" fill="#000e3a"/></g><g transform="translate(67.138 53.117)"><path d="M375.17,305.691a1.817,1.817,0,0,0-.1-.338,1.9,1.9,0,0,0-.166-.313,1.8,1.8,0,0,0-2.193-.665,1.922,1.922,0,0,0-.313.166,1.756,1.756,0,0,0-.5.5,1.922,1.922,0,0,0-.166.313,1.816,1.816,0,0,0-.1.338,1.742,1.742,0,0,0,0,.706,1.819,1.819,0,0,0,.1.338,1.906,1.906,0,0,0,.166.313,1.757,1.757,0,0,0,.5.5,1.92,1.92,0,0,0,.313.166,1.827,1.827,0,0,0,.338.1,1.792,1.792,0,0,0,1.63-.493,1.782,1.782,0,0,0,.392-.587,1.821,1.821,0,0,0,.1-.338,1.835,1.835,0,0,0,0-.706Z" transform="translate(-371.591 -304.238)" fill="#000e3a"/></g><g transform="translate(73.989 53.117)"><path d="M420.2,304.236h-8.892a1.807,1.807,0,1,0,0,3.614H420.2a1.807,1.807,0,1,0,0-3.614Z" transform="translate(-409.505 -304.236)" fill="#000e3a"/></g><g transform="translate(0.213 66.58)"><path d="M30.756,378.751H2.988a1.807,1.807,0,0,0-1.807,1.807v18.61a1.807,1.807,0,0,0,1.807,1.807H30.756a1.807,1.807,0,0,0,1.807-1.807v-18.61A1.807,1.807,0,0,0,30.756,378.751Zm-1.807,18.61H4.795v-15H28.949Z" transform="translate(-1.181 -378.751)" fill="#000e3a"/></g><g transform="translate(34.28 66.58)"><path d="M246.149,378.751H191.535a1.807,1.807,0,0,0-1.807,1.807v18.61a1.807,1.807,0,0,0,1.807,1.807h54.614a1.807,1.807,0,0,0,1.807-1.807v-18.61A1.807,1.807,0,0,0,246.149,378.751Zm-1.807,18.61h-51v-15h51Z" transform="translate(-189.728 -378.751)" fill="#000e3a"/></g><g transform="translate(42.546 75.886)"><path d="M239.058,431.709a1.83,1.83,0,0,0-.1-.338,1.78,1.78,0,0,0-.166-.312,1.752,1.752,0,0,0-.5-.5,1.8,1.8,0,0,0-.313-.166,1.828,1.828,0,0,0-.338-.1,1.857,1.857,0,0,0-.706,0,1.918,1.918,0,0,0-.338.1,1.848,1.848,0,0,0-.311.166,1.73,1.73,0,0,0-.275.224,1.837,1.837,0,0,0-.226.275,1.778,1.778,0,0,0-.166.312,1.829,1.829,0,0,0-.1.338,1.826,1.826,0,0,0,0,.7,1.888,1.888,0,0,0,.1.339,1.81,1.81,0,0,0,1.669,1.115,1.793,1.793,0,0,0,.352-.034,1.828,1.828,0,0,0,.338-.1,1.668,1.668,0,0,0,.313-.166,1.709,1.709,0,0,0,.275-.224,1.732,1.732,0,0,0,.224-.275,1.834,1.834,0,0,0,.166-.311,1.887,1.887,0,0,0,.1-.34,1.737,1.737,0,0,0,0-.7Z" transform="translate(-235.481 -430.255)" fill="#000e3a"/></g><g transform="translate(49.395 75.885)"><path d="M305.537,430.252H275.2a1.807,1.807,0,0,0,0,3.614h30.341a1.807,1.807,0,0,0,0-3.614Z" transform="translate(-273.389 -430.252)" fill="#000e3a"/></g></svg>