<svg xmlns="http://www.w3.org/2000/svg" width="59.111" height="88.666" viewBox="0 0 59.111 88.666"><path d="M7.5,17.778A14.778,14.778,0,0,1,22.278,3H37.055V32.555H22.278A14.778,14.778,0,0,1,7.5,17.778Z" transform="translate(-7.5 -3)" fill="#ea4c1d"/><path d="M18,3H32.778a14.778,14.778,0,1,1,0,29.555H18Z" transform="translate(11.555 -3)" fill="#f76e5f"/><path d="M18,28.278A14.778,14.778,0,1,1,32.778,43.055,14.778,14.778,0,0,1,18,28.278Z" transform="translate(11.555 16.055)" fill="#19b6f6"/><path d="M7.5,38.778A14.778,14.778,0,0,1,22.278,24H37.055V38.778a14.778,14.778,0,0,1-29.555,0Z" transform="translate(-7.5 35.111)" fill="#0ac97f"/><path d="M7.5,28.278A14.778,14.778,0,0,1,22.278,13.5H37.055V43.055H22.278A14.778,14.778,0,0,1,7.5,28.278Z" transform="translate(-7.5 16.055)" fill="#9d56f7"/></svg>