<svg id="eixs173tis0n1" xmlns="http://www.w3.org/2000/svg" xmlns:xlink="http://www.w3.org/1999/xlink" viewBox="0 0 720 505.400000" shape-rendering="geometricPrecision" text-rendering="geometricPrecision"><style><![CDATA[#eixs173tis0n4_tr {animation: eixs173tis0n4_tr__tr 3000ms linear infinite alternate forwards}@keyframes eixs173tis0n4_tr__tr { 0% {transform: translate(215.428913px,241.382345px) rotate(0deg);animation-timing-function: cubic-bezier(0.420000,0,0.580000,1)} 100% {transform: translate(215.428913px,241.382345px) rotate(360deg)} }#eixs173tis0n7_tr {animation: eixs173tis0n7_tr__tr 3000ms linear infinite alternate forwards}@keyframes eixs173tis0n7_tr__tr { 0% {transform: translate(215.499992px,241.369002px) rotate(0deg);animation-timing-function: cubic-bezier(0.420000,0,0.580000,1)} 50% {transform: translate(215.499992px,241.369002px) rotate(-360deg);animation-timing-function: cubic-bezier(0.420000,0,0.580000,1)} 53.333333% {transform: translate(215.499992px,241.369002px) rotate(-360deg);animation-timing-function: cubic-bezier(0.420000,0,0.580000,1)} 100% {transform: translate(215.499992px,241.369002px) rotate(0deg)} }]]></style><g id="eixs173tis0n2" transform="matrix(1 0 0 1 22.14635205000008 -1.72936199999999)"><circle id="eixs173tis0n3" r="93.500000" transform="matrix(1 0 0 1 102.50000000000000 397.50000000000000)" fill="rgb(242,242,242)" stroke="none" stroke-width="1"/><g id="eixs173tis0n4_tr" transform="translate(215.428913,241.382345) rotate(0)"><g id="eixs173tis0n4" transform="translate(-215.428913,-241.382345)"><path id="eixs173tis0n5" d="M215.500000,438.900000C121.300000,438.900000,40.200000,372.400000,21.800000,280C3.400000,187.600000,52.900000,95.100000,139.900000,59C226.900000,22.900000,327.300000,53.400000,379.600000,131.700000C431.900000,210,421.700000,314.400000,355,381C318.100000,418.100000,267.900000,438.900000,215.500000,438.900000ZM215.500000,45.500000C107.500000,45.500000,19.500000,133.400000,19.500000,241.500000C19.500000,349.600000,107.400000,437.500000,215.500000,437.500000C323.600000,437.500000,411.500000,349.600000,411.500000,241.500000C411.500000,133.400000,323.600000,45.500000,215.500000,45.500000L215.500000,45.500000Z" fill="rgb(99,202,255)" stroke="none" stroke-width="1"/><circle id="eixs173tis0n6" r="37.700000" transform="matrix(1 0 0 1 336.80000000000001 86.90000000000001)" fill="rgb(99,202,255)" stroke="none" stroke-width="1"/></g></g><g id="eixs173tis0n7_tr" transform="translate(215.499992,241.369002) rotate(0)"><g id="eixs173tis0n7" transform="translate(-215.499992,-241.369002)"><path id="eixs173tis0n8" d="M318.400000,303.900000L318.400000,303.900000L221,358.100000L114.400000,304.800000L112.600000,303.900000L118.100000,193.300000L214.300000,124.700000L215.400000,125.400000L315,187.800000L318.400000,303.900000Z" fill="rgb(99,202,255)" stroke="none" stroke-width="1"/><path id="eixs173tis0n9" d="M318.400000,304L221,358.100000L114.400000,304.800000L208.800000,238.600000L318.400000,304Z" opacity="0.3" fill="rgb(0,0,0)" stroke="none" stroke-width="1"/><path id="eixs173tis0n10" d="M318.400000,303.900000L208.900000,238.600000L215.500000,125.300000L315.100000,187.700000L318.400000,303.900000Z" opacity="0.1" fill="rgb(0,0,0)" stroke="none" stroke-width="1"/><path id="eixs173tis0n11" d="M116.700000,227.500000L116.200000,226.700000L213.500000,158L316.300000,222.400000L315.800000,223.200000L213.500000,159.100000L116.700000,227.500000Z" fill="rgb(242,242,242)" stroke="none" stroke-width="1"/><path id="eixs173tis0n12" d="M114.900000,265L114.400000,264.200000L211.200000,198.500000L211.500000,198.600000L316.500000,258.100000L316,258.900000L211.300000,199.500000L114.900000,265Z" fill="rgb(242,242,242)" stroke="none" stroke-width="1"/><path id="eixs173tis0n13" d="M151.800000,323.800000L151.300000,323L248.900000,262.500000L248.900000,146.600000L249.800000,146.600000L249.800000,263L151.800000,323.800000Z" fill="rgb(242,242,242)" stroke="none" stroke-width="1"/><path id="eixs173tis0n14" d="M190.100000,343L189.600000,342.200000L283.600000,283.300000L283.600000,168.400000L284.500000,168.400000L284.500000,283.800000L190.100000,343Z" fill="rgb(242,242,242)" stroke="none" stroke-width="1"/><path id="eixs173tis0n15" d="M283.200000,323.800000L173.900000,263.100000L173.900000,262.800000L179.700000,149.100000L180.600000,149.100000L174.900000,262.500000L283.700000,323L283.200000,323.800000Z" fill="rgb(242,242,242)" stroke="none" stroke-width="1"/><path id="eixs173tis0n16" d="M248.800000,343L140.800000,286.400000L140.800000,286.100000L147.200000,172.300000L148.100000,172.400000L141.700000,285.800000L249.200000,342.100000L248.800000,343Z" fill="rgb(242,242,242)" stroke="none" stroke-width="1"/></g></g><rect id="eixs173tis0n17" width="648.100000" height="1.500000" rx="0" ry="0" transform="matrix(1 0 0 1 30.89999999999998 489.39999999999998)" fill="rgb(47,46,65)" stroke="none" stroke-width="1"/><path id="eixs173tis0n18" d="M603.800000,286.700000L612.400000,310.300000C612.400000,310.300000,603.400000,337.300000,612.400000,338C621.400000,338.700000,622.500000,312.200000,622.500000,312.200000L617.600000,283.700000L603.800000,286.700000Z" fill="rgb(255,185,185)" stroke="none" stroke-width="1"/><path id="eixs173tis0n19" d="M607.900000,209.600000L614.300000,216L614.300000,246.300000C614.300000,246.300000,618,251.900000,617.300000,253.400000C616.600000,254.900000,615.800000,254.900000,616.600000,256C617.400000,257.100000,618.100000,257.900000,617.300000,258.600000C616.600000,259.600000,616.600000,261,617.300000,262C618,262.700000,619.500000,263.900000,618.400000,265C617.300000,266.100000,615.800000,265.400000,617.300000,269.500000C618.800000,273.600000,621.400000,274.700000,620.700000,276.200000C619.900000,277.700000,620,281.400000,620,281.400000L603.900000,283.600000L600.500000,241.300000L607.900000,209.600000Z" fill="rgb(208,205,225)" stroke="none" stroke-width="1"/><path id="eixs173tis0n20" d="M620.600000,281.100000L601.900000,281.800000L602.600000,289.700000L619.100000,286.700000L620.600000,281.100000Z" fill="rgb(76,89,128)" stroke="none" stroke-width="1"/><path id="eixs173tis0n21" d="M569.100000,170.400000L566.900000,192.900000L589.700000,196.300000L591.400000,183.400000L593.100000,170.500000L569.100000,170.400000Z" fill="rgb(255,185,185)" stroke="none" stroke-width="1"/><path id="eixs173tis0n22" d="M569.100000,170.400000L566.900000,192.900000L589.700000,196.300000L591.400000,183.400000L593.100000,170.500000L569.100000,170.400000Z" opacity="0.1" fill="rgb(0,0,0)" stroke="none" stroke-width="1"/><path id="eixs173tis0n23" d="M519.500000,277.300000L532.200000,304.600000C532.200000,304.600000,534.400000,317.300000,537.800000,317.700000C541.200000,318.100000,544.500000,304.600000,544.500000,304.600000L540,297.500000L534.800000,277.300000L519.500000,277.300000Z" fill="rgb(255,185,185)" stroke="none" stroke-width="1"/><path id="eixs173tis0n24" d="M546.100000,302.100000L535.600000,318.600000C535.600000,318.600000,525.500000,475.500000,527,474.400000C528.500000,473.300000,533.400000,472.900000,535.200000,469.900000C537,466.900000,548.700000,469.900000,548.700000,469.900000L555.400000,462.800000L555.400000,457.200000C555.400000,456.100000,568.900000,370.300000,568.900000,370.300000L568.900000,392C568.900000,392,564.800000,471.800000,571.500000,471C578.200000,470.300000,592.100000,465.800000,592.100000,465.800000C592.100000,465.800000,612,316.700000,606,311.100000C600,305.500000,597.400000,292.700000,597.400000,292.700000L546.100000,302.100000Z" fill="rgb(0,14,58)" stroke="none" stroke-width="1"/><circle id="eixs173tis0n25" r="18" transform="matrix(1 0 0 1 581.70000000000005 159.80000000000001)" fill="rgb(255,185,185)" stroke="none" stroke-width="1"/><path id="eixs173tis0n26" d="M541.600000,196.500000L539,195C539,195,527.400000,202.900000,523.600000,220.500000C519.800000,238.100000,517.200000,242.600000,517.200000,242.600000C517.200000,242.600000,513.500000,243.300000,516.100000,246C518.700000,248.600000,518.700000,248.200000,516.500000,249.700000C514.300000,251.200000,512.800000,248.200000,514.300000,251.200000C515.800000,254.200000,517.700000,253.400000,516.200000,255.300000C514.700000,257.200000,512.100000,257.200000,513.600000,258.700000C515.100000,260.200000,512.100000,263.600000,514,265.100000C515.900000,266.600000,516.600000,267,516.600000,269.600000C516.600000,271.100000,516.800000,272.700000,517.300000,274.100000L536.800000,274.100000C536.800000,274.100000,533.100000,267,534.200000,265.500000C535.300000,264,535.700000,262.500000,534.900000,261.800000C534.100000,261.100000,531.900000,262.500000,534.200000,260.700000C536.500000,258.800000,537.200000,260,536.400000,257.700000C535.600000,255.400000,534.200000,256.600000,535.700000,255.500000C537.200000,254.400000,538.300000,254.800000,537.600000,253.600000C536.900000,252.500000,535.400000,252.500000,536.900000,251.700000C538.400000,251,539.500000,251.700000,539.100000,249.800000C538.700000,247.900000,538.400000,248.700000,539.100000,247.900000C539.800000,247.200000,547.700000,221.700000,547.700000,220.900000C547.700000,220.100000,541.600000,196.500000,541.600000,196.500000Z" fill="rgb(208,205,225)" stroke="none" stroke-width="1"/><path id="eixs173tis0n27" d="M537.800000,272.500000L514.200000,274L520.200000,279.600000L536.700000,280L537.800000,272.500000Z" fill="rgb(76,89,128)" stroke="none" stroke-width="1"/><path id="eixs173tis0n28" d="M544.600000,300.600000L539.700000,309.600000C539.700000,309.600000,554.300000,311.500000,559.500000,313.300000C564.700000,315.200000,578.200000,317.800000,578.200000,317.800000L581.600000,304.700000L544.600000,300.600000Z" fill="rgb(76,89,128)" stroke="none" stroke-width="1"/><path id="eixs173tis0n29" d="M587.300000,304.700000L591.400000,317.100000L607.900000,313.700000L606,302.100000L587.300000,304.700000Z" fill="rgb(76,89,128)" stroke="none" stroke-width="1"/><path id="eixs173tis0n30" d="M594,183.700000C594,183.700000,592.900000,183,590.300000,184.400000C587.700000,185.900000,579.100000,186.600000,574.900000,182.200000C570.800000,177.700000,567.800000,174,566.700000,174.700000C565.600000,175.400000,564.800000,184.100000,564.800000,184.100000L561.100000,187.100000L539,195L540.900000,245.600000L544.300000,257.200000C544.300000,257.200000,541.700000,266.200000,545,271.400000C548.300000,276.600000,543.100000,278.500000,543.100000,278.500000C543.100000,278.500000,542,280,542.700000,283.700000C543.400000,287.400000,542,301.300000,542,301.300000C542,301.300000,573.800000,315.500000,607.200000,303.200000L603.500000,289L601.600000,257.200000C601.600000,257.200000,603.500000,252,603.100000,249.700000C602.700000,247.500000,614.300000,216,614.300000,216C614.300000,216,612.400000,200.300000,602.700000,196.900000C593,193.500000,591.500000,190.200000,591.500000,190.200000C591.500000,190.200000,595.900000,185.200000,594,183.700000Z" fill="rgb(208,205,225)" stroke="none" stroke-width="1"/><path id="eixs173tis0n31" d="M563.600000,162.100000C562.500000,160.400000,562.100000,158.300000,562.500000,156.300000C562.900000,154.600000,563.100000,152.800000,563,151.100000C563.800000,148.500000,564.800000,145.900000,566,143.500000C567.500000,140.800000,566.800000,139.600000,571.500000,138.800000C576.200000,137.900000,574.300000,131.800000,586.800000,138.400000C587.700000,139.600000,589.200000,140.200000,590.600000,139.800000C593.200000,139.300000,594.100000,142.900000,594.100000,142.900000C594.100000,142.900000,595.800000,141.900000,596.500000,143.300000C597.100000,144.700000,601.800000,142.400000,601.800000,152.100000C601.800000,161.800000,596.600000,170.500000,596.600000,170.500000C596.600000,170.500000,597,154.200000,588.400000,152.500000C579.900000,150.800000,570.700000,146,568.400000,152.200000C567.100000,155.600000,565.500000,159,563.600000,162.100000L563.600000,162.100000Z" fill="rgb(47,46,65)" stroke="none" stroke-width="1"/><ellipse id="eixs173tis0n32" rx="1.700000" ry="2.200000" transform="matrix(1 0 0 1 596.60000000000002 163.69999999999999)" fill="rgb(255,185,185)" stroke="none" stroke-width="1"/><path id="eixs173tis0n33" d="M587.100000,464.400000L589.700000,472.300000C589.700000,472.300000,589.700000,480.200000,592.300000,484.200000C594.900000,488.200000,597.600000,496.700000,587,497.400000C576.400000,498.100000,571.900000,494.100000,571.900000,494.100000C571.900000,494.100000,573.900000,488.800000,571.900000,486.900000C569.900000,484.900000,571.900000,481,571.900000,481L573.900000,465.200000L587.100000,464.400000Z" fill="rgb(47,46,65)" stroke="none" stroke-width="1"/><path id="eixs173tis0n34" d="M535.800000,464.400000L533.200000,472.300000C533.200000,472.300000,533.200000,480.200000,530.600000,484.200000C528,488.200000,525.300000,496.700000,535.900000,497.400000C546.400000,498.100000,551,494.100000,551,494.100000C551,494.100000,549,488.800000,551,486.900000C553,484.900000,551,481,551,481L549,465.200000L535.800000,464.400000Z" fill="rgb(47,46,65)" stroke="none" stroke-width="1"/></g></svg>