<svg xmlns="http://www.w3.org/2000/svg" width="101.333" height="98.799" viewBox="0 0 101.333 98.799"><path d="M0,.45v98.8H101.333V.45ZM4.222,4.672H97.111V95.027H4.222ZM24.489,23.588c0-.283.591-.49.946-.49,2.719-.139,6.7-.211,10.885-.211,11.7,0,16.255,6.418,16.255,14.634,0,10.724-7.777,15.327-17.319,15.327-1.6,0-2.153-.072-3.272-.072V69c0,.35-.139.49-.486.49H24.979c-.35,0-.486-.127-.486-.477V23.588Zm7.494,22.428c.971.068,1.74.068,3.42.068,4.94,0,9.584-1.74,9.584-8.427,0-5.362-3.319-8.081-8.96-8.081-1.672,0-3.272.068-4.041.139V46.029ZM68.324,41c-3.344,0-4.459,1.672-4.459,3.065,0,1.533.76,2.576,5.223,4.877,6.62,3.209,8.706,6.27,8.706,10.8,0,6.756-5.151,10.387-12.118,10.387a18.447,18.447,0,0,1-8.656-1.816c-.274-.139-.338-.346-.338-.7V61.418c0-.422.2-.562.481-.355a15.554,15.554,0,0,0,8.5,2.508C69,63.572,70.4,62.178,70.4,60.3c0-1.533-.971-2.858-5.223-5.088-6-2.871-8.5-5.784-8.5-10.669,0-5.434,4.248-9.964,11.632-9.964a19.68,19.68,0,0,1,7.575,1.182.921.921,0,0,1,.422.836v5.784c0,.35-.211.562-.633.422a15.12,15.12,0,0,0-7.359-1.816Z" transform="translate(0 -0.45)" fill="#001d34"/></svg>